<?xml version="1.0" encoding="UTF-8" standalone="no"?>
<svg
   xmlns:dc="http://purl.org/dc/elements/1.1/"
   xmlns:cc="http://creativecommons.org/ns#"
   xmlns:rdf="http://www.w3.org/1999/02/22-rdf-syntax-ns#"
   xmlns:svg="http://www.w3.org/2000/svg"
   xmlns="http://www.w3.org/2000/svg"
   id="svg8"
   version="1.1"
   viewBox="0 0 10.583333 10.583333"
   height="40"
   width="40">
  <defs
     id="defs2">
    <marker
       style="overflow:visible"
       id="Arrow1Lstart"
       refX="0"
       refY="0"
       orient="auto">
      <path
         transform="matrix(0.8,0,0,0.8,10,0)"
         style="fill-rule:evenodd;stroke:#000000;stroke-width:1.00000003pt"
         d="M 0,0 5,-5 -12.5,0 5,5 Z"
         id="path4520" />
    </marker>
  </defs>
  <metadata
     id="metadata5">
    <rdf:RDF>
      <cc:Work
         rdf:about="">
        <dc:format>image/svg+xml</dc:format>
        <dc:type
           rdf:resource="http://purl.org/dc/dcmitype/StillImage" />
        <dc:title></dc:title>
      </cc:Work>
    </rdf:RDF>
  </metadata>
  <g
     transform="translate(0,-286.41667)"
     id="layer1">
    <g
       transform="translate(0.50249085,0.76588667)"
       id="g4840">
      <path
         style="opacity:1;fill:none;fill-opacity:1;stroke:#ffffff;stroke-width:0.25400001;stroke-miterlimit:4;stroke-dasharray:none;stroke-opacity:0.97894736"
         d="m 9.0225104,288.84794 -2.6e-6,5.53472 c 0,0.43939 -0.3537347,0.79312 -0.7931256,0.79312 H 1.3489694 c -0.4393935,0 -0.79312818,-0.35373 -0.79312818,-0.79312 v -6.88042 c 0,-0.43939 0.35373468,-0.79312 0.79312818,-0.79312 v 0 h 5.7564152 z"
         id="path4834" />
      <path
         style="fill:none;fill-opacity:1;stroke:#ffffff;stroke-width:0.26458332px;stroke-linecap:butt;stroke-linejoin:miter;stroke-opacity:0.97894736"
         d="m 2.7506359,295.17579 -0.0167,-2.27731 h 4.11049 l 0.0167,2.27731"
         id="path4796" />
      <circle
         style="opacity:1;fill:none;fill-opacity:1;stroke:#ffffff;stroke-width:0.25399998;stroke-miterlimit:4;stroke-dasharray:none;stroke-opacity:0.97894736"
         id="path4798"
         cx="4.7891803"
         cy="289.73294"
         r="1.5119048" />
      <path
         style="fill:none;fill-opacity:1;stroke:#ffffff;stroke-width:0.26458332px;stroke-linecap:butt;stroke-linejoin:miter;stroke-opacity:0.97894736"
         d="m 3.7261179,293.83397 c 0.236236,0 2.126118,0 2.126118,0"
         id="path4800" />
    </g>
  </g>
</svg>
